<svg version="1" xmlns="http://www.w3.org/2000/svg" width="666.667" height="666.667" viewBox="0 0 500.000000 500.000000"><g fill="#e45028"><path d="M50.6 12.9c-.5.8.6 2.8 3 5.4 2.2 2.2 4.9 5.1 6.2 6.5 1.3 1.3 2.6 2.2 2.9 1.8.7-.7-1.4-3.8-7-10-3.1-3.5-4.6-4.6-5.1-3.7zM227.8 23.5c-.2.2-3.4.6-7.3.9-3.8.4-8.1.8-9.5 1.1-1.4.2-4.3.7-6.5 1C187.3 29 182 31 182 35.1c0 1 1.4 2.7 3 3.9 3.2 2.3 4 5 1.5 5-1.7 0-2 2.3-.5 4.9.9 1.7 1.4 1.7 6.7.5 7.1-1.6 10.5-2.2 16.3-3 2.5-.3 5.6-.7 6.9-.9 10.5-1.7 50.1-2.5 57.1-1.1 1.4.2 3.8.5 5.3.5 2.7.1 2.4.5-4.9 7.4l-7.6 7.4 12.6 12.7 12.7 12.7 4.5-.5c3.4-.4 7.4-2.3 16.5-8.2 6.6-4.2 11.7-8 11.2-8.4-.4-.4-6.4-4.9-13.3-10s-12.9-9.6-13.4-10.1c-1.6-1.4 19.1 3.4 32.6 7.6 39.7 12.4 76.8 36.4 96.7 62.5 1.9 2.5-2.3-1.2-9.3-8.3C405.2 98.3 403.5 97 400.4 97c-1.9 0-4.7.6-6.3 1.4-3.6 1.9-10.3 9.3-12 13.3-1.2 3-1.1 3.4 3 9 2.3 3.2 7.4 9.6 11.2 14.3 3.9 4.7 7.2 8.7 7.4 8.9.2.2.5.2.7 0 .7-.7-5-13.5-7.3-16.5-1.3-1.7-1.9-3.6-1.6-5.2.9-4.9 1.3-4.6 10.5 7.5 3 4 5.7 7.3 6 7.3.3 0 4.3-3.1 9-7l8.5-6.9 1.7 2.2c7.2 9.2 16.8 34 18.1 46.8l.4 3.6-128.1.1c-70.5 0-128.7.1-129.5.1-.9.1-1 .5-.4 1.3 1.5 2.1 1.3 5.8-.3 5.8-.8 0-1.4-.3-1.4-.8 0-.4-1.2-2-2.6-3.6l-2.6-2.9-55.6.1c-30.7 0-56.2.1-56.9.1-.6.1-1.1 1.3-1.1 2.8.2 7.6-.2 8-2.7 2.5-1.3-2.8-3-5.2-3.7-5.3-.7 0-4.6-.1-8.5-.1-4-.1-7.3-.2-7.3-.4 0-.1.7-3.6 1.6-7.6.8-4 1.7-8.3 2-9.5 2.1-10.5 11.3-29 20.1-40.4 18-23.5 49.9-45.5 84-58 6.2-2.2 11.3-4.6 11.3-5.2 0-2.2-3.3-17.2-3.9-18-.4-.4-4.5.6-9.2 2.2-24.1 8.3-45 19.3-64.4 33.9-16.1 12.1-17.1 13.4-14.1 17.8 1.4 1.9 1.2 2.2-4.5 5.2-3.3 1.8-6.5 3.2-7.1 3.2-.6 0 .2-1.7 1.7-3.8 2-2.7 1.2-2.2-2.8 1.9-13.5 14-27.9 40.5-31.1 56.9-.2 1.4-.9 4.5-1.5 7-.9 4.3-1.2 5.9-2.6 14-.3 1.9-1.5 7.2-2.5 11.8-1.1 4.6-2 8.5-2 8.8 0 .2 14.3.3 31.8.3 23.5-.1 30.3-.4 26.4-1.1-5.1-.9-5.2-1-5.2-4.4 0-1.9.4-3.4 1-3.4 2.2 0 14 6.5 14 7.7 0 1.1 35.5 1.3 189.8 1.1 175.7-.3 189.7-.4 189.6-2-.1-.9-.4-6.4-.8-12.3-2.5-42.1-21.2-75.8-59.2-106.4-4.8-3.9-24.4-16.6-31.7-20.5-20.7-11.2-48.6-21.1-73.7-26-7.2-1.4-9-1.7-19-3.1-2.5-.3-6.1-.8-8-1.1-3.8-.6-50.7-1.4-51.2-.9zm-105.9 42c1.3 1.4 2.2 2.7 2 2.9-.4.4-7.5.9-9.2.7-1.2-.1 2.5-6.1 3.8-6.1.5 0 2.1 1.2 3.4 2.5z"/><path d="M175.9 45.8c-1.1.2-1.6 1.5-1.7 4.2l-.2 3.9 3.1-.9c1.8-.5 3.4-1.1 3.6-1.4.9-.9-3.3-6.1-4.8-5.8zM211.8 66.7c-2.9.8-6.4 3-9.5 5.8l-4.8 4.5 3.7-.5c2.6-.3 3.8 0 4.2 1 .3.9-.1 1.6-.9 1.6-.8.1-2.4.3-3.5.4-1.1.1-2.8.3-3.8.4-1.1 0-2.4 1.3-3.1 2.8-1.3 2.7-1.1 3 4.3 7.9 8.6 7.8 14.8 10.8 22.6 10.8 14.5.1 22.7-9.8 19-22.8-1.4-5.3-3.9-7.8-10.1-10.5-5.9-2.6-12.3-3.1-18.1-1.4zM133.3 77.6c-1.5.6-5.8 4.3-9.6 8.1l-6.7 6.9 6.9 6.8c6 6 7.1 6.7 8.9 5.7 1.1-.6 3.3-1.1 4.7-1.1h2.6l-2 2.9c-2.4 3.4-2.1 5 1.8 7.9 2.6 1.9 5.3 2.6 9.3 2.3 2.1-.1 24.5-15.3 24.5-16.6 0-1.1-26.8-20.8-27.4-20.1-.2.2-1.5-.6-2.7-1.7-2.8-2.5-6.3-2.9-10.3-1.1zM323.4 95.1c-8.1 5.6-15.2 12.7-15.9 15.9-.3 1.4 0 4 .7 5.7 1.4 3.3 14.9 21.2 16 21.2.4.1 2.2-1.4 3.9-3.2 1.7-1.7 8.5-8.8 15.1-15.5l12-12.4-6.7-6.1c-3.7-3.4-8-7-9.4-7.9-4.4-3-9.1-2.3-15.7 2.3zM278.5 94.6c-3.1 3.4-4.1 8.5-2.6 13.6.7 2.2 1.5 3.8 1.7 3.5.7-.7 4.3-14.7 3.8-14.7-.2 0 .1-1.1.6-2.5 1.3-3.3-.4-3.3-3.5.1zM170.5 125.2c-18.2 24.5-18.3 25.5-4.6 39.2l5.9 5.9 12.1-12.2c12.6-12.8 14.3-15.8 12.2-21.1-.5-1.4-4.3-7.6-8.4-13.8l-7.4-11.3-9.8 13.3zM86.4 121.5c-3.2 4.8-6.5 9.4-7.3 10.2-2.3 2.4-1.7 9.2 1.2 14.8 1.4 2.7 4.9 8.3 7.7 12.4 4.7 6.6 5.5 7.3 8 6.8 1.5-.3 5.1-.9 8-1.3l5.2-.7 3.1-6.6c4-8.7 4-14.5.1-19.8-2.6-3.5-9.7-12.1-15.2-18.4-1.2-1.4-2.8-3.4-3.5-4.3-1.2-1.6-1.9-.9-7.3 6.9zM285.8 117.6c-2.7 1.4-2.7 1.5-1.1 4.8 1.7 3.8 1.2 3.8 10.2-.1l4.4-1.9-3.5-2.2c-4.1-2.6-6.3-2.7-10-.6zM253.5 121.3c-1 1.7-3.3 5-5 7.2-6 7.4-7.9 13.3-6.4 19 .5 1.9 3.9 7.4 7.5 12.2 10.8 14.7 10.2 14 11.3 12.3.5-.9 5.7-7.7 11.5-15.2 5.8-7.5 10.6-14 10.6-14.5s-3.4-4.2-7.5-8.3c-7.4-7.4-8.3-7.6-7.5-2 .2 1.5 6.6 10.9 8.5 12.3 1.6 1.3-3.7-.4-6.9-2.2-3-1.6-6.4-7.2-10.5-17.1-3.1-7.3-3.4-7.5-5.6-3.7zm18.4 27.9c1.9 5.1-2.9 10.8-10.9 13.2-5.7 1.7-7.3 1.2-8.3-2.5-1.1-4.2 9.6-12.8 16.1-12.9 1.4 0 2.6.8 3.1 2.2zM135.8 130.3l-4.7.9 2.6 4.1c1.4 2.3 2.7 4.3 2.8 4.5.5.6 6.1-2.6 7.4-4.2 1.7-2.1.7-6.2-1.6-6.2-1-.1-3.9.3-6.5.9zM31 134c-1.4.5-5.3 1.7-8.7 2.7-5.8 1.6-7.7 3.3-5.3 4.8.9.6 16.3-3.8 18.9-5.4 1.5-1 .6-3.1-1.2-3-.7 0-2.3.4-3.7.9zM358.4 139.3c-3.9 3.4-9.6 8.4-12.8 11.2-7.4 6.3-8.6 7.5-8.6 8.4 0 .4 1.9 1.8 4.3 3.1 2.3 1.3 7.2 4.3 10.9 6.6 11.6 7.5 18.8 7.8 27.3 1 2.2-1.8 6.8-5.2 10.3-7.5l6.3-4.2-4.8-3.7c-2.6-2-5-3.8-5.3-4.1-.3-.4-5-4.3-10.6-8.8l-10-8.1-7 6.1zM305.1 138.6c-1.8 4.9 1.6 11.4 5.8 11.4 1.4 0 2-1.1 2.5-4.8.3-2.6.9-6 1.2-7.5.6-2.8.6-2.8-3.8-2.6-4.1.2-4.6.6-5.7 3.5zM288.2 199.6c-4.8 2-6.3 10.5-1.8 10.4.6-.1 2.8-2.5 4.8-5.4 3.3-4.8 3.5-5.4 1.9-5.9-1-.2-3.2.1-4.9.9zM291.4 224.7c.3 4.3.5 7.9.5 8 .1.2.5.3.9.3.5 0 .9-3.6 1-8 0-6.5-.3-8-1.5-8s-1.4 1.3-.9 7.7zM381.1 226.1c-3.8 2.3-3.6 4 .7 5.3 4.9 1.4 10-2.9 7-5.9-1.4-1.4-4.8-1.2-7.7.6zM167.7 231.8c-37.2.1-67.7.5-67.7.8 0 .3.4 1.3 1 2.3.9 1.7.6 1.8-7.6.1-4.6-1-8.8-1.9-9.2-2-.4-.1-1.2-.4-1.8-.7-.6-.2-12.2-.3-25.7-.1l-24.5.3-4.5 4.5c-5.6 5.7-7.6 11.4-6 17.3 2 7.3-1.6 10-9.6 7.2-5.6-1.9-5.4-2-4.6 1.2.4 1.6.8 4.7.9 7 .5 9.1 11.3 20.1 21.9 22.2 4 .8 90.2 1.5 120.2 1 1.1 0 39.6 0 85.5.1s84 .1 84.6.1c.7-.1-4.7-5.8-11.8-12.9-7.2-7-18.5-18-25.1-24.5-11.4-11.2-12.1-11.7-13.9-10.1-1.7 1.6-2 1.6-4.3-.6-2.3-2.1-2.4-2.5-1.1-4.5 1.4-2.1 1.2-2.3-2.2-4.3-5.3-2.9-11.7-4.4-19.7-4.6-3.8 0-37.5 0-74.8.2zm-108.3 6.1c4.8 4.9 5 6.6.5 5.3-4.2-1.2-5.9-2.7-6.8-5.9-.9-3-.6-4.3.9-4.3.3 0 2.7 2.2 5.4 4.9zm51.9 5.3c2.4 2.4 5 5.4 5.8 6.7 1.5 2.4 1.6 2.4 19.5 2.3 9.8 0 18.5-.1 19.3-.1.9-.1 1.2-.9.9-2.6-.7-3.2-.2-3.1 3 .3 2.6 2.7 2.9 2.8 12.3 2.6l9.7-.3-.9 3.8c-.5 2.1-1.3 5.1-1.9 6.5-.5 1.5-1 3.8-1 5.2 0 1.9.5 2.4 2.4 2.4 3.5 0 7.8-6.2 10.4-14.5l.9-3 20.9-.1c36.1-.3 34.4-.2 33.7-2-.5-1.4 4.1-7.4 5.8-7.4.4 0 2.2 1.3 4 2.9l3.1 2.9-3.3 2.2-3.4 2.3 9.2 9.4c5.1 5.1 9.3 9.6 9.3 9.8 0 .3-24.2.5-53.7.5h-53.8l-2.7 5.9c-1.8 3.8-4.3 7.1-7.3 9.5l-4.5 3.7-1.1-2.5c-1.6-3.5.7-9.4 4.8-12.1 1.7-1.1 3.9-2.5 4.9-3.2 1.5-1-.1-1.2-8.5-1.2-8.1-.1-10.1.2-9.4 1.1.5.7 1.6 3.3 2.3 5.8.8 2.5 2 5.6 2.7 7 1.7 3.3.8 3.8-2.1 1.1-2.3-2.1-7.6-12-7.6-14 0-1.3 5-1.2-51.5-1.2-49.9 0-52-.2-54.5-4.9-2.7-5-1.2-11.3 3.3-13.7 2.8-1.6 7.1-1.8 35.7-2 17.9-.1 32.8-.2 33.3-.2.4-.1.7-1 .7-2.2 0-4.1 2.3-10.9 3.6-10.9.8 0 3.3 1.9 5.7 4.2zM451.5 243.4c-1.2 1.5-4.1 3.1-7.2 4-5.7 1.6-5.9 1.5-4.2-1.6.6-1.1.8-2.2.5-2.5-.7-.8-5.1 3-22 19-8.2 7.8-15.3 14.3-15.7 14.5-1.5.6-1 3.9.7 5.3 2.1 1.7 51.8 1.7 58.4 0 5.2-1.4 12.7-6.2 15.4-9.8 4.1-5.5 2.6-17.6-3-24.3-2.6-3-8.9-5.6-16.4-6.6-4-.5-4.7-.3-6.5 2zM284.5 304.2c-.4.9-.4 3.5-.1 5.9.3 2.4.5 5.2.5 6.1.1 1 .5 1.8.9 1.8.9 0 .6-13.9-.3-14.8-.2-.3-.7.2-1 1zM155.8 310.7c-5.1 2.8-5.7 3.7-3.3 4.7 3.1 1.1 9.5-2.9 9.5-6 0-1.9-.8-1.8-6.2 1.3zM377.6 325.2c-.9.5-1.6 1.9-1.5 3.1 0 1.2.1 2.7 0 3.4-.1.6-3.7 3.1-8.1 5.4-4.4 2.4-11.1 7.2-15 10.7l-7 6.3-3.2-3.7c-1.8-2-3.7-4.3-4.2-5.1-2.9-5.1-12.6-11.9-20.4-14.4-6-1.9-9.1-2.2-29-2.3-12.3-.1-22.5.1-22.8.5-.2.4.1 2 .7 3.7 1.4 4.1 1.8 12.3.7 14.4-.7 1.4-.4 1.8 1.3 1.8 1.6 0 1.9.4 1.4 1.7-2.1 5.1-2.4 7.4-1 7.9 2.3.9 5.4-1.4 7.5-5.6 1.4-2.8 2.7-4 4.3-4.1 1.2 0 7.9-.1 14.9 0 10.4 0 13.5.3 17.2 1.9 5.1 2.3 5.2 2.4 17.6 17.2 5.2 6.2 11.1 13.1 13.1 15.3l3.5 3.9 5.7-8.4c3.2-4.7 8.1-10.8 11-13.7 5.6-5.6 16.1-12.6 17.6-11.7.5.3 1.4-.1 2-.8 1.1-1.3 5.2-2.5 13.6-4.1 1.7-.4 7.6-.6 13.3-.6l10.2.1v-4c0-5 2.1-5.3 3.8-.6 1.9 5.3 3.2 5.8 14.4 6 6 .1 10.2.6 10.2 1.1-.1.6-.5 3.4-.8 6.2-.3 2.9-1.7 8.7-3.1 12.9-9.8 30.1-34 54.2-64.7 64.4-12.1 4-19.5 4.8-48.5 5.1-8.6 0-14.3.5-14.3 1.1 0 .5 1 .9 2.3.8 4.7-.4 6.7 0 6.7 1.5s-1.3 1.8-9.2 1.8c-4.9 0-6.8-.9-6.8-2.9 0-1.3.6-1.5 3-1.1 1.7.4 3 .3 3-.2s-20.7-.8-46-.7c-35.1.2-47.1-.1-51-1.1-3.7-.9-5.7-1-7.1-.3-2.2 1.3-61.3 1.4-64.7.2-.6-.2-1.2-1.3-1.2-2.3 0-2.4-2-2.5-2.1-.2-.1 1-.1 2.1-.1 2.4.1.9-17.2-.6-18.8-1.6-.4-.2-2.1-.7-3.9-1-4.8-.8-16.9-5.9-23.8-9.9-15.8-9.3-29-23-38.2-39.7-3.7-6.8-8.7-21.6-9.7-28.4-.3-2.8-.8-5.8-1-6.8-.3-1.5.7-1.7 10.1-1.7h10.3l1.2 3.6c.7 1.9 1 3.6.8 3.7-.1.1-2.1 1.1-4.2 2.3l-3.9 2.1-4.3-2.4c-2.3-1.3-4.5-2-4.7-1.6-.5.8 10.3 10.5 12.1 11 .4.1 3.6-4 7.2-9.2l6.5-9.4 5.1-.1c4.2 0 5.6.5 7.8 2.6 1.4 1.5 2.6 3 2.6 3.5 0 .4 1.3 0 3-.9 1.6-.9 3-2.5 3-3.5 0-1.6 2.1-1.7 30.5-1.7 25.3 0 30.5.2 31.2 1.4.4.8 2.5 2.6 4.5 4 4.9 3.3 6.3 1.3 1.9-2.6L167 349h30.4c26.1 0 30.5.2 31 1.5.3.8.3 2.2-.1 3.1-.4 1.1 1 .7 4.9-1.5 5.2-3 6-3.1 16.6-3.1 8.8 0 11.2-.3 11.2-1.4 0-1.6-5.9-16.7-7.1-18-.7-.8-223.6-1.2-224.5-.3-.9.9-.5 22.7.5 29.2 6.9 42.6 35.8 78.1 76 93.2 12.4 4.6 21.8 6.3 39.1 7 9.1.4 61.3.7 116 .7 89.2-.1 100.5-.2 109-1.8 31.1-5.6 57.8-21.9 76.5-46.8 11.3-14.9 19.6-33.8 22-50.2l.8-4.8-3.6.4c-3.8.4-3.8.3-.3-4.4 1.6-2.2 2.2-2.5 3.4-1.6 1.3 1.1 1.4-.2.9-10.2-.4-6.3-.6-11.5-.7-11.5-14.4 0-47.2-.3-57.5-.5-7.7-.2-15.1-.1-16.5.2-9.4 2.1-10 2.1-10 0 0-3.2-4.1-4.9-7.4-3zM74 350c0 .5-.2 1-.4 1-.3 0-.8-.5-1.1-1-.3-.6-.1-1 .4-1 .6 0 1.1.4 1.1 1zm227.1 92.2c0 .7.2 2.8.3 4.5.1 1.8.1 3.3-.1 3.3-1.1 0-11.3-7.2-11.3-8 0-1.5 11-1.3 11.1.2zM480.9 349.5c-4.4 2.3-6.1 9.5-2.4 10.1 2.4.4 3.6-.6 7.9-6.6l3.5-4.8h-3.2c-1.8 0-4.4.6-5.8 1.3z"/><path d="M261.5 359.5c-.5.2-2.9.9-5.2 1.5-2.4.6-4.3 1.5-4.3 1.9 0 .5 2.1 1.2 4.8 1.5 2.6.4 5.6 1 6.7 1.3 1.6.5 1.8.3.8-.8-.8-1-.9-2-.3-2.9 1.7-2.7.7-3.7-2.5-2.5zM276.1 363.2c-.5 1.3-1.6 4-2.5 6.2-2 4.9-2 5.6.2 5.6 3.9 0 8.6-9.6 6.2-12.5-1.7-2.1-2.9-1.9-3.9.7zM202.7 365.2c-.2.8 2.4 2.3 7.2 4 8.8 3.3 8.1 3.2 8.1 1.4 0-.8-2.9-2.5-6.5-4-7.4-3-8.2-3.1-8.8-1.4zM483.3 374.7c-3 .6-2.9 2 .3 6.6l2.5 3.8 4-3.2c5.4-4.3 5.1-7.3-.6-7.5-2.2-.1-5 0-6.2.3zM374.5 380c-7.2 2.2-9 3.1-9 4.6 0 2.2.1 2.2 8.5-.4 11-3.5 12-4 11.4-5.7-.7-1.8.2-1.9-10.9 1.5zM147.5 408.6c-.9 1-1.3 2.3-.9 3.3 1.4 3.4 1.6 6.1.5 9.3-.7 2-.8 3.5-.2 4.1.6.6 1.2 0 1.7-1.7.8-3.3 1.7-3.3 3.4 0 3 5.5 7.6 5.5 10.3-.1 2-4.3 5.2-6.3 10.8-7.1 2.4-.3 4.5-.7 4.7-.9.1-.1-.6-1.2-1.6-2.5l-1.9-2.3-6.5 3.7c-9.4 5.2-12.3 4.6-13.5-2.6-.7-4.9-3.7-6.2-6.8-3.2zM214.9 413c-.9 3.3-1.2 6-.8 6 .4 0 2-1.6 3.5-3.5 2.3-3.1 2.5-3.9 1.6-6-.7-1.4-1.5-2.5-2-2.5-.4 0-1.4 2.7-2.3 6zM189.2 427c-1.6 2.6-1.5 5.1.4 7.8 2.9 4.2 4.1 2.8 3-3.8-.5-3.3-1.2-6-1.5-6-.4 0-1.2.9-1.9 2zM188.5 475.1c1.1 3.7 4.2 6.5 8.6 7.8 2.3.7 4.2 1.1 4.4.9.1-.2-2.9-2.7-6.7-5.7-6-4.6-6.9-5-6.3-3zM174 478.2c.1 1.3.9 3.8 1.9 5.6 1.5 3 1.9 3.2 3 1.8 1.1-1.4 1.1-2.3-.1-5.4-1.6-4.3-4.8-5.7-4.8-2z"/></g></svg>