<?xml version="1.0" standalone="no"?>
<!DOCTYPE svg PUBLIC "-//W3C//DTD SVG 20010904//EN"
 "http://www.w3.org/TR/2001/REC-SVG-20010904/DTD/svg10.dtd">
<svg version="1.0" xmlns="http://www.w3.org/2000/svg"
 width="500.000000pt" height="500.000000pt" viewBox="0 0 500.000000 500.000000"
 preserveAspectRatio="xMidYMid meet">
<metadata>
Created by potrace 1.11, written by Peter Selinger 2001-2013
</metadata>
<g transform="translate(0.000000,500.000000) scale(0.100000,-0.100000)"
fill="#000000" stroke="none">
<path d="M506 4871 c-5 -8 6 -28 30 -54 22 -22 49 -51 62 -65 13 -13 26 -22
29 -18 7 7 -14 38 -70 100 -31 35 -46 46 -51 37z"/>
<path d="M2278 4765 c-2 -2 -34 -6 -73 -9 -38 -4 -81 -8 -95 -11 -14 -2 -43
-7 -65 -10 -172 -25 -225 -45 -225 -86 0 -10 14 -27 30 -39 32 -23 40 -50 15
-50 -17 0 -20 -23 -5 -49 9 -17 14 -17 67 -5 71 16 105 22 163 30 25 3 56 7
69 9 105 17 501 25 571 11 14 -2 38 -5 53 -5 27 -1 24 -5 -49 -74 l-76 -74
126 -127 127 -127 45 5 c34 4 74 23 165 82 66 42 117 80 112 84 -4 4 -64 49
-133 100 -69 51 -129 96 -134 101 -16 14 191 -34 326 -76 397 -124 768 -364
967 -625 19 -25 -23 12 -93 83 -114 114 -131 127 -162 127 -19 0 -47 -6 -63
-14 -36 -19 -103 -93 -120 -133 -12 -30 -11 -34 30 -90 23 -32 74 -96 112
-143 39 -47 72 -87 74 -89 2 -2 5 -2 7 0 7 7 -50 135 -73 165 -13 17 -19 36
-16 52 9 49 13 46 105 -75 30 -40 57 -73 60 -73 3 0 43 31 90 70 l85 69 17
-22 c72 -92 168 -340 181 -468 l4 -36 -1281 -1 c-705 0 -1287 -1 -1295 -1 -9
-1 -10 -5 -4 -13 15 -21 13 -58 -3 -58 -8 0 -14 3 -14 8 0 4 -12 20 -26 36
l-26 29 -556 -1 c-307 0 -562 -1 -569 -1 -6 -1 -11 -13 -11 -28 2 -76 -2 -80
-27 -25 -13 28 -30 52 -37 53 -7 0 -46 1 -85 1 -40 1 -73 2 -73 4 0 1 7 36 16
76 8 40 17 83 20 95 21 105 113 290 201 404 180 235 499 455 840 580 62 22
113 46 113 52 0 22 -33 172 -39 180 -4 4 -45 -6 -92 -22 -241 -83 -450 -193
-644 -339 -161 -121 -171 -134 -141 -178 14 -19 12 -22 -45 -52 -33 -18 -65
-32 -71 -32 -6 0 2 17 17 38 20 27 12 22 -28 -19 -135 -140 -279 -405 -311
-569 -2 -14 -9 -45 -15 -70 -9 -43 -12 -59 -26 -140 -3 -19 -15 -72 -25 -118
-11 -46 -20 -85 -20 -88 0 -2 143 -3 318 -3 235 1 303 4 264 11 -51 9 -52 10
-52 44 0 19 4 34 10 34 22 0 140 -65 140 -77 0 -11 355 -13 1898 -11 1757 3
1897 4 1896 20 -1 9 -4 64 -8 123 -25 421 -212 758 -592 1064 -48 39 -244 166
-317 205 -207 112 -486 211 -737 260 -72 14 -90 17 -190 31 -25 3 -61 8 -80
11 -38 6 -507 14 -512 9z m-1059 -420 c13 -14 22 -27 20 -29 -4 -4 -75 -9 -92
-7 -12 1 25 61 38 61 5 0 21 -12 34 -25z"/>
<path d="M1759 4542 c-11 -2 -16 -15 -17 -42 l-2 -39 31 9 c18 5 34 11 36 14
9 9 -33 61 -48 58z"/>
<path d="M2118 4333 c-29 -8 -64 -30 -95 -58 l-48 -45 37 5 c26 3 38 0 42 -10
3 -9 -1 -16 -9 -16 -8 -1 -24 -3 -35 -4 -11 -1 -28 -3 -38 -4 -11 0 -24 -13
-31 -28 -13 -27 -11 -30 43 -79 86 -78 148 -108 226 -108 145 -1 227 98 190
228 -14 53 -39 78 -101 105 -59 26 -123 31 -181 14z"/>
<path d="M1333 4224 c-15 -6 -58 -43 -96 -81 l-67 -69 69 -68 c60 -60 71 -67
89 -57 11 6 33 11 47 11 l26 0 -20 -29 c-24 -34 -21 -50 18 -79 26 -19 53 -26
93 -23 21 1 245 153 245 166 0 11 -268 208 -274 201 -2 -2 -15 6 -27 17 -28
25 -63 29 -103 11z"/>
<path d="M3234 4049 c-81 -56 -152 -127 -159 -159 -3 -14 0 -40 7 -57 14 -33
149 -212 160 -212 4 -1 22 14 39 32 17 17 85 88 151 155 l120 124 -67 61 c-37
34 -80 70 -94 79 -44 30 -91 23 -157 -23z"/>
<path d="M2785 4054 c-31 -34 -41 -85 -26 -136 7 -22 15 -38 17 -35 7 7 43
147 38 147 -2 0 1 11 6 25 13 33 -4 33 -35 -1z"/>
<path d="M1705 3748 c-182 -245 -183 -255 -46 -392 l59 -59 121 122 c126 128
143 158 122 211 -5 14 -43 76 -84 138 l-74 113 -98 -133z"/>
<path d="M864 3785 c-32 -48 -65 -94 -73 -102 -23 -24 -17 -92 12 -148 14 -27
49 -83 77 -124 47 -66 55 -73 80 -68 15 3 51 9 80 13 l52 7 31 66 c40 87 40
145 1 198 -26 35 -97 121 -152 184 -12 14 -28 34 -35 43 -12 16 -19 9 -73 -69z"/>
<path d="M2858 3824 c-27 -14 -27 -15 -11 -48 17 -38 12 -38 102 1 l44 19 -35
22 c-41 26 -63 27 -100 6z"/>
<path d="M2535 3787 c-10 -17 -33 -50 -50 -72 -60 -74 -79 -133 -64 -190 5
-19 39 -74 75 -122 108 -147 102 -140 113 -123 5 9 57 77 115 152 58 75 106
140 106 145 0 5 -34 42 -75 83 -74 74 -83 76 -75 20 2 -15 66 -109 85 -123 16
-13 -37 4 -69 22 -30 16 -64 72 -105 171 -31 73 -34 75 -56 37z m184 -279 c19
-51 -29 -108 -109 -132 -57 -17 -73 -12 -83 25 -11 42 96 128 161 129 14 0 26
-8 31 -22z"/>
<path d="M1358 3697 l-47 -9 26 -41 c14 -23 27 -43 28 -45 5 -6 61 26 74 42
17 21 7 62 -16 62 -10 1 -39 -3 -65 -9z"/>
<path d="M310 3660 c-14 -5 -53 -17 -87 -27 -58 -16 -77 -33 -53 -48 9 -6 163
38 189 54 15 10 6 31 -12 30 -7 0 -23 -4 -37 -9z"/>
<path d="M3584 3607 c-39 -34 -96 -84 -128 -112 -74 -63 -86 -75 -86 -84 0 -4
19 -18 43 -31 23 -13 72 -43 109 -66 116 -75 188 -78 273 -10 22 18 68 52 103
75 l63 42 -48 37 c-26 20 -50 38 -53 41 -3 4 -50 43 -106 88 l-100 81 -70 -61z"/>
<path d="M3051 3614 c-18 -49 16 -114 58 -114 14 0 20 11 25 48 3 26 9 60 12
75 6 28 6 28 -38 26 -41 -2 -46 -6 -57 -35z"/>
<path d="M2882 3004 c-48 -20 -63 -105 -18 -104 6 1 28 25 48 54 33 48 35 54
19 59 -10 2 -32 -1 -49 -9z"/>
<path d="M2914 2753 c3 -43 5 -79 5 -80 1 -2 5 -3 9 -3 5 0 9 36 10 80 0 65
-3 80 -15 80 -12 0 -14 -13 -9 -77z"/>
<path d="M3811 2739 c-38 -23 -36 -40 7 -53 49 -14 100 29 70 59 -14 14 -48
12 -77 -6z"/>
<path d="M1677 2682 c-372 -1 -677 -5 -677 -8 0 -3 4 -13 10 -23 9 -17 6 -18
-76 -1 -46 10 -88 19 -92 20 -4 1 -12 4 -18 7 -6 2 -122 3 -257 1 l-245 -3
-45 -45 c-56 -57 -76 -114 -60 -173 20 -73 -16 -100 -96 -72 -56 19 -54 20
-46 -12 4 -16 8 -47 9 -70 5 -91 113 -201 219 -222 40 -8 902 -15 1202 -10 11
0 396 0 855 -1 459 -1 840 -1 846 -1 7 1 -47 58 -118 129 -72 70 -185 180
-251 245 -114 112 -121 117 -139 101 -17 -16 -20 -16 -43 6 -23 21 -24 25 -11
45 14 21 12 23 -22 43 -53 29 -117 44 -197 46 -38 0 -375 0 -748 -2z m-1083
-61 c48 -49 50 -66 5 -53 -42 12 -59 27 -68 59 -9 30 -6 43 9 43 3 0 27 -22
54 -49z m519 -53 c24 -24 50 -54 58 -67 15 -24 16 -24 195 -23 98 0 185 1 193
1 9 1 12 9 9 26 -7 32 -2 31 30 -3 26 -27 29 -28 123 -26 l97 3 -9 -38 c-5
-21 -13 -51 -19 -65 -5 -15 -10 -38 -10 -52 0 -19 5 -24 24 -24 35 0 78 62
104 145 l9 30 209 1 c361 3 344 2 337 20 -5 14 41 74 58 74 4 0 22 -13 40 -29
l31 -29 -33 -22 -34 -23 92 -94 c51 -51 93 -96 93 -98 0 -3 -242 -5 -537 -5
l-538 0 -27 -59 c-18 -38 -43 -71 -73 -95 l-45 -37 -11 25 c-16 35 7 94 48
121 17 11 39 25 49 32 15 10 -1 12 -85 12 -81 1 -101 -2 -94 -11 5 -7 16 -33
23 -58 8 -25 20 -56 27 -70 17 -33 8 -38 -21 -11 -23 21 -76 120 -76 140 0 13
50 12 -515 12 -499 0 -520 2 -545 49 -27 50 -12 113 33 137 28 16 71 18 357
20 179 1 328 2 333 2 4 1 7 10 7 22 0 41 23 109 36 109 8 0 33 -19 57 -42z"/>
<path d="M4515 2566 c-12 -15 -41 -31 -72 -40 -57 -16 -59 -15 -42 16 6 11 8
22 5 25 -7 8 -51 -30 -220 -190 -82 -78 -153 -143 -157 -145 -15 -6 -10 -39 7
-53 21 -17 518 -17 584 0 52 14 127 62 154 98 41 55 26 176 -30 243 -26 30
-89 56 -164 66 -40 5 -47 3 -65 -20z"/>
<path d="M2845 1958 c-4 -9 -4 -35 -1 -59 3 -24 5 -52 5 -61 1 -10 5 -18 9
-18 9 0 6 139 -3 148 -2 3 -7 -2 -10 -10z"/>
<path d="M1558 1893 c-51 -28 -57 -37 -33 -47 31 -11 95 29 95 60 0 19 -8 18
-62 -13z"/>
<path d="M3776 1748 c-9 -5 -16 -19 -15 -31 0 -12 1 -27 0 -34 -1 -6 -37 -31
-81 -54 -44 -24 -111 -72 -150 -107 l-70 -63 -32 37 c-18 20 -37 43 -42 51
-29 51 -126 119 -204 144 -60 19 -91 22 -290 23 -123 1 -225 -1 -228 -5 -2 -4
1 -20 7 -37 14 -41 18 -123 7 -144 -7 -14 -4 -18 13 -18 16 0 19 -4 14 -17
-21 -51 -24 -74 -10 -79 23 -9 54 14 75 56 14 28 27 40 43 41 12 0 79 1 149 0
104 0 135 -3 172 -19 51 -23 52 -24 176 -172 52 -62 111 -131 131 -153 l35
-39 57 84 c32 47 81 108 110 137 56 56 161 126 176 117 5 -3 14 1 20 8 11 13
52 25 136 41 17 4 76 6 133 6 l102 -1 0 40 c0 50 21 53 38 6 19 -53 32 -58
144 -60 60 -1 102 -6 102 -11 -1 -6 -5 -34 -8 -62 -3 -29 -17 -87 -31 -129
-98 -301 -340 -542 -647 -644 -121 -40 -195 -48 -485 -51 -86 0 -143 -5 -143
-11 0 -5 10 -9 23 -8 47 4 67 0 67 -15 0 -15 -13 -18 -92 -18 -49 0 -68 9 -68
29 0 13 6 15 30 11 17 -4 30 -3 30 2 0 5 -207 8 -460 7 -351 -2 -471 1 -510
11 -37 9 -57 10 -71 3 -22 -13 -613 -14 -647 -2 -6 2 -12 13 -12 23 0 24 -20
25 -21 2 -1 -10 -1 -21 -1 -24 1 -9 -172 6 -188 16 -4 2 -21 7 -39 10 -48 8
-169 59 -238 99 -158 93 -290 230 -382 397 -37 68 -87 216 -97 284 -3 28 -8
58 -10 68 -3 15 7 17 101 17 l103 0 12 -36 c7 -19 10 -36 8 -37 -1 -1 -21 -11
-42 -23 l-39 -21 -43 24 c-23 13 -45 20 -47 16 -5 -8 103 -105 121 -110 4 -1
36 40 72 92 l65 94 51 1 c42 0 56 -5 78 -26 14 -15 26 -30 26 -35 0 -4 13 0
30 9 16 9 30 25 30 35 0 16 21 17 305 17 253 0 305 -2 312 -14 4 -8 25 -26 45
-40 49 -33 63 -13 19 26 l-31 28 304 0 c261 0 305 -2 310 -15 3 -8 3 -22 -1
-31 -4 -11 10 -7 49 15 52 30 60 31 166 31 88 0 112 3 112 14 0 16 -59 167
-71 180 -7 8 -2236 12 -2245 3 -9 -9 -5 -227 5 -292 69 -426 358 -781 760
-932 124 -46 218 -63 391 -70 91 -4 613 -7 1160 -7 892 1 1005 2 1090 18 311
56 578 219 765 468 113 149 196 338 220 502 l8 48 -36 -4 c-38 -4 -38 -3 -3
44 16 22 22 25 34 16 13 -11 14 2 9 102 -4 63 -6 115 -7 115 -144 0 -472 3
-575 5 -77 2 -151 1 -165 -2 -94 -21 -100 -21 -100 0 0 32 -41 49 -74 30z
m-3036 -248 c0 -5 -2 -10 -4 -10 -3 0 -8 5 -11 10 -3 6 -1 10 4 10 6 0 11 -4
11 -10z m2271 -922 c0 -7 2 -28 3 -45 1 -18 1 -33 -1 -33 -11 0 -113 72 -113
80 0 15 110 13 111 -2z"/>
<path d="M4809 1505 c-44 -23 -61 -95 -24 -101 24 -4 36 6 79 66 l35 48 -32 0
c-18 0 -44 -6 -58 -13z"/>
<path d="M2615 1405 c-5 -2 -29 -9 -52 -15 -24 -6 -43 -15 -43 -19 0 -5 21
-12 48 -15 26 -4 56 -10 67 -13 16 -5 18 -3 8 8 -8 10 -9 20 -3 29 17 27 7 37
-25 25z"/>
<path d="M2761 1368 c-5 -13 -16 -40 -25 -62 -20 -49 -20 -56 2 -56 39 0 86
96 62 125 -17 21 -29 19 -39 -7z"/>
<path d="M2027 1348 c-2 -8 24 -23 72 -40 88 -33 81 -32 81 -14 0 8 -29 25
-65 40 -74 30 -82 31 -88 14z"/>
<path d="M4833 1253 c-30 -6 -29 -20 3 -66 l25 -38 40 32 c54 43 51 73 -6 75
-22 1 -50 0 -62 -3z"/>
<path d="M3745 1200 c-72 -22 -90 -31 -90 -46 0 -22 1 -22 85 4 110 35 120 40
114 57 -7 18 2 19 -109 -15z"/>
<path d="M1475 914 c-9 -10 -13 -23 -9 -33 14 -34 16 -61 5 -93 -7 -20 -8 -35
-2 -41 6 -6 12 0 17 17 8 33 17 33 34 0 30 -55 76 -55 103 1 20 43 52 63 108
71 24 3 45 7 47 9 1 1 -6 12 -16 25 l-19 23 -65 -37 c-94 -52 -123 -46 -135
26 -7 49 -37 62 -68 32z"/>
<path d="M2149 870 c-9 -33 -12 -60 -8 -60 4 0 20 16 35 35 23 31 25 39 16 60
-7 14 -15 25 -20 25 -4 0 -14 -27 -23 -60z"/>
<path d="M1892 730 c-16 -26 -15 -51 4 -78 29 -42 41 -28 30 38 -5 33 -12 60
-15 60 -4 0 -12 -9 -19 -20z"/>
<path d="M1885 249 c11 -37 42 -65 86 -78 23 -7 42 -11 44 -9 1 2 -29 27 -67
57 -60 46 -69 50 -63 30z"/>
<path d="M1740 218 c1 -13 9 -38 19 -56 15 -30 19 -32 30 -18 11 14 11 23 -1
54 -16 43 -48 57 -48 20z"/>
</g>
</svg>
